<svg width="25" height="24" viewBox="0 0 25 24" fill="none" xmlns="http://www.w3.org/2000/svg">
<path d="M10.4996 20C10.4996 20.1858 10.5512 20.368 10.6489 20.5261C10.7466 20.6842 10.8864 20.8119 11.0526 20.895L13.0526 21.895C13.2051 21.9712 13.3746 22.0072 13.5449 21.9994C13.7152 21.9917 13.8807 21.9406 14.0257 21.8509C14.1707 21.7613 14.2903 21.636 14.3733 21.4871C14.4562 21.3381 14.4997 21.1705 14.4996 21V14C14.4999 13.5044 14.6841 13.0265 15.0166 12.659L22.2396 4.67C22.3691 4.52656 22.4542 4.34868 22.4847 4.15788C22.5152 3.96708 22.4898 3.77153 22.4115 3.59487C22.3333 3.41822 22.2055 3.26802 22.0436 3.16245C21.8818 3.05688 21.6929 3.00046 21.4996 3H3.49964C3.30625 3.00007 3.11702 3.05622 2.95489 3.16164C2.79276 3.26706 2.66467 3.41723 2.58614 3.59396C2.50762 3.7707 2.48203 3.96641 2.51246 4.15739C2.5429 4.34837 2.62807 4.52643 2.75764 4.67L9.98264 12.659C10.3152 13.0265 10.4994 13.5044 10.4996 14V20Z" stroke="#101828" stroke-linecap="round" stroke-linejoin="round"/>
</svg>
