<svg width="206" height="68" viewBox="0 0 206 68" fill="none" xmlns="http://www.w3.org/2000/svg">
<g clip-path="url(#clip0_843_29894)">
<path d="M125.125 18.3608H124.469V60.8513H125.125V18.3608Z" fill="#0079C1"/>
<path d="M158.219 34.9669C158.219 23.4392 164.519 17.4487 171.222 17.4487C177.925 17.4487 184.225 23.4392 184.225 35.0173C184.225 46.5455 177.925 52.5359 171.222 52.5359C164.519 52.5359 158.219 46.5455 158.219 34.9669ZM164.771 34.9669C164.771 43.726 168.349 46.8978 171.222 46.8978C174.095 46.8978 177.673 43.726 177.673 34.9669C177.673 26.2582 174.044 23.0869 171.222 23.0869C168.4 23.0869 164.771 26.2582 164.771 34.9669Z" fill="#0079C1"/>
<path fill-rule="evenodd" clip-rule="evenodd" d="M194.594 18.2925C195.163 22.5642 193.875 26.785 190.988 30.9628C189.248 27.1237 190.006 21.9674 194.594 18.2925Z" fill="#50B848"/>
<path fill-rule="evenodd" clip-rule="evenodd" d="M198.846 26.0264C198.653 29.6494 193.873 34.0506 190.188 35.0002C190.441 31.3676 195.053 26.7174 198.846 26.0264Z" fill="#50B848"/>
<path fill-rule="evenodd" clip-rule="evenodd" d="M197.237 34.4917C195.577 38.9499 190.045 41.0179 186.66 41.0426C188.537 36.6953 193.907 34.5688 197.237 34.4917Z" fill="#50B848"/>
<path fill-rule="evenodd" clip-rule="evenodd" d="M187.676 25.2344C190.02 29.1915 189.685 33.932 187.334 38.0933C184.935 33.7389 185.432 29.4668 187.676 25.2344Z" fill="#50B848"/>
<path d="M192.356 42.2988H171.023V52.5357H192.356V42.2988Z" fill="#00AEEF"/>
<path d="M177.316 44.3447V50.4945H175.832V45.5096H174.855V47.6255C174.855 49.9551 174.426 50.563 173.423 50.563C173.105 50.563 172.882 50.4945 172.625 50.3831V49.3473C172.694 49.381 172.839 49.3977 172.985 49.3977C173.397 49.3977 173.423 49.1497 173.423 47.2485V44.3447H177.316Z" fill="white"/>
<path d="M180.516 44.3447H183.963V45.5096H181.999V46.7172H183.757V47.8826H181.999V49.3301H183.963V50.4945H180.516V44.3447Z" fill="white"/>
<path d="M189.694 50.4944H188.331V45.5096H187.164V44.3447H190.783V45.5096H189.694V50.4944Z" fill="white"/>
<path d="M155.249 23.9703H144.11L142.906 29.2324C143.558 29.1316 144.26 29.0318 145.113 29.0318C151.687 29.0318 156.754 33.1407 156.754 40.3569C156.754 46.672 152.89 52.5354 143.658 52.5354C140.999 52.5354 136.785 52.0842 132.871 48.2758L135.028 42.6629C136.534 44.5172 139.343 46.9225 143.508 46.9225C147.522 46.9225 150.232 44.2667 150.232 40.4577C150.232 36.9497 147.773 33.742 142.655 33.742C140.949 33.742 138.64 34.0928 136.232 35.8973H135.831L139.795 18.3569H155.249V23.9703Z" fill="#0079C1"/>
<path d="M116.202 48.0322H41.5391V60.8367H116.202V48.0322Z" fill="#0079C1"/>
<path d="M36.8858 16.8472C35.7463 11.8613 32.8886 7.80632 32.494 7.14404C31.8728 8.07498 29.5929 11.6541 28.4343 15.6274C27.1692 20.0543 26.9835 23.9837 27.42 27.8537C27.8535 31.7242 29.4905 35.6944 29.4905 35.6944C30.361 37.7801 31.6649 40.0115 32.5142 41.1088C33.7566 39.4954 36.6163 34.6823 37.5075 28.3915C38.0035 24.8956 38.0252 21.834 36.8858 16.8472ZM32.494 39.8683C31.9349 38.8134 31.0649 36.8089 30.9817 33.709C30.9605 30.7101 32.1625 28.143 32.5142 27.6067C32.8261 28.143 33.8611 30.3784 33.9842 33.4399C34.0685 36.4369 33.0743 38.7932 32.494 39.8683ZM36.5547 25.3098C36.5123 27.2116 36.2848 29.2186 35.9946 30.4187C36.0991 28.3507 35.8508 25.4328 35.3734 23.1571C34.8971 20.8804 33.5502 17.0745 32.4733 15.3159C31.4797 16.9913 30.2565 20.2821 29.6151 23.136C28.9707 25.9928 28.9516 29.4465 28.9516 30.4827C28.782 29.6088 28.3531 26.4958 28.4752 23.3638C28.5746 20.7816 29.1797 18.1294 29.5112 16.9087C30.7738 12.8326 32.2049 10.2272 32.4733 9.81338C32.7423 10.2272 34.5443 13.4344 35.4779 16.8063C36.4079 20.1778 36.5951 23.4061 36.5547 25.3098Z" fill="#0079C1"/>
<path d="M34.4273 42.2704H25.7579V48.0819C25.7654 48.0739 25.772 48.0653 25.7796 48.0578C27.8223 46.0179 31.1346 46.0179 33.1779 48.0578C35.2201 50.0981 35.2201 53.407 33.1779 55.4464C33.1693 55.4554 33.1597 55.4625 33.1516 55.471C33.1516 55.471 33.1516 55.4726 33.1506 55.4731C33.14 55.4832 33.1294 55.4907 33.1198 55.5003C31.0832 57.521 28.4203 58.532 25.7579 58.532C23.0844 58.532 20.4099 57.5134 18.3697 55.4756C14.7747 51.8849 14.3488 46.3289 17.0889 42.2704C17.4588 41.7226 17.8852 41.2014 18.3697 40.7165C20.4099 38.6797 23.0844 37.6621 25.7579 37.6621V23.6943C15.4822 23.6943 7.15234 32.0154 7.15234 42.2704C7.15234 52.5341 15.4822 60.8541 25.7579 60.8541C31.116 60.8541 35.9422 58.5905 39.3378 54.9731V42.2704H34.4273Z" fill="#0079C1"/>
<path d="M41.5391 23.6943H48.6316V25.9978H45.2576V42.2659H41.5391V23.6943Z" fill="#0079C1"/>
<path d="M52.648 35.2886L53.2853 25.9962H53.4988L54.1356 35.2886H52.648ZM48.5312 42.2659H52.1696L52.5148 37.3304H54.2693L54.614 42.2659H58.2539L56.3136 23.6943H50.47L48.5312 42.2659Z" fill="#0079C1"/>
<path d="M63.1405 35.7649V39.2624C63.1405 39.7402 63.5119 39.8733 63.7243 39.8733C64.0705 39.8733 64.3092 39.5814 64.3092 39.2624V34.9434C64.3092 34.3592 64.2022 33.7236 62.821 33.7236H61.3077V31.6807H62.8745C63.9367 31.6807 64.3092 31.4413 64.3092 30.3007V26.6077C64.3092 26.2896 64.0705 25.9978 63.7243 25.9978C63.5119 25.9978 63.1405 26.1303 63.1405 26.6077V29.6369H59.4219V27.0104C59.4219 25.71 59.5808 23.6943 62.1837 23.6943H65.2669C67.8713 23.6943 68.0298 25.71 68.0298 27.0104V29.9822C68.0298 31.9983 66.6219 32.5558 65.5066 32.5023V32.6888C68.0035 32.6354 68.0298 34.5457 68.0298 35.2085V38.9499C68.0298 40.2493 67.8713 42.2659 65.2669 42.2659H62.1837C59.5808 42.2659 59.4219 40.2493 59.4219 38.9499V35.7649H63.1405Z" fill="#0079C1"/>
<path d="M69.9844 23.6943H78.5928V42.2659H74.8752V25.9978H73.7045V42.2659H69.9844V23.6943Z" fill="#0079C1"/>
<path d="M84.4847 33.9095V25.9977H84.9636C85.3617 25.9977 85.6539 26.342 85.6539 26.9247V32.9801C85.6539 33.5638 85.3617 33.9095 84.9636 33.9095H84.4847ZM80.7656 42.2659H84.4847V35.9514H86.6092C89.213 35.9514 89.3725 33.9347 89.3725 32.6353V27.0104C89.3725 25.7099 89.213 23.6943 86.6092 23.6943H80.7656V42.2659Z" fill="#0079C1"/>
<path d="M96.068 39.2624C96.068 39.5814 95.8293 39.8733 95.4841 39.8733C95.2707 39.8733 94.8988 39.7402 94.8988 39.2624V26.6071C94.8988 26.1303 95.2707 25.9978 95.4841 25.9978C95.8293 25.9978 96.068 26.2896 96.068 26.6071V39.2624ZM91.1797 38.9499C91.1797 40.2493 91.3396 42.2659 93.9425 42.2659H97.0242C99.6266 42.2659 99.7871 40.2493 99.7871 38.9499V27.0104C99.7871 25.71 99.6266 23.6943 97.0242 23.6943H93.9425C91.3396 23.6943 91.1797 25.71 91.1797 27.0104V38.9499Z" fill="#0079C1"/>
<path d="M111.373 23.6943H116.207V42.2659H112.488V30.6192H112.355L110.443 42.2659H107.467L105.555 30.6192H105.422V42.2659H101.703V23.6943H106.537L108.955 36.7473L111.373 23.6943Z" fill="#0079C1"/>
<path d="M45.8737 50.5947V52.5005C45.8737 53.3457 45.638 54.5776 45.5951 55.4223H45.6057L47.1706 50.5947H48.9388V58.2812H47.1706V56.4934C47.1706 55.6683 47.4279 54.4163 47.5137 53.6028H47.5031L45.906 58.2812H44.1055V50.5947H45.8737Z" fill="white"/>
<path d="M57.9092 53.5604H59.1203V50.5947H60.9743V58.2812H59.1203V55.0156H57.9092V58.2812H56.0547V50.5947H57.9092V53.5604Z" fill="white"/>
<path d="M72.7603 50.5947V51.3331H73.3068C74.7212 51.3331 75.7507 52.2323 75.7507 54.3946C75.7507 56.5892 74.7212 57.4561 73.3068 57.4561H72.7603V58.2807H70.9704V57.4561H70.4239C69.02 57.4561 67.9805 56.5892 67.9805 54.3946C67.9805 52.2323 69.02 51.3331 70.4239 51.3331H70.9704V50.5947H72.7603ZM70.9704 52.7142H70.5843C69.9308 52.7142 69.6846 53.3029 69.6846 54.3946C69.6846 55.5085 69.9525 56.0756 70.606 56.0756H70.9704V52.7142ZM72.7603 56.0756H73.1357C73.7892 56.0756 74.0466 55.5085 74.0466 54.3946C74.0466 53.3029 73.8109 52.7142 73.1569 52.7142H72.7603V56.0756Z" fill="white"/>
<path d="M87.6706 52.5962V56.0433C87.6706 57.5745 86.9096 58.4626 85.1732 58.4626C83.4585 58.4626 82.6758 57.5745 82.6758 56.0433V52.5856C82.6758 51.3759 83.4368 50.4233 85.1838 50.4233C86.9308 50.4233 87.6706 51.3976 87.6706 52.5962ZM84.5303 52.4682V56.3644C84.5303 56.8245 84.8517 57.0493 85.1732 57.0493C85.484 57.0493 85.8161 56.8245 85.8161 56.3644V52.4682C85.8161 52.0292 85.484 51.8366 85.1732 51.8366C84.8517 51.8366 84.5303 52.0292 84.5303 52.4682Z" fill="white"/>
<path d="M96.5654 58.2812H94.7109V50.5947H97.4011C98.4729 50.5947 99.6522 50.9798 99.6522 52.939C99.6522 54.8341 98.4946 55.2838 97.4011 55.2838H96.5654V58.2812ZM96.5654 53.9027H96.898C97.3582 53.9027 97.7977 53.6774 97.7977 52.9173C97.7977 52.1577 97.4011 51.9758 96.8657 51.9758H96.5654V53.9027Z" fill="white"/>
<path d="M109.278 50.5947L109.878 53.7097C110.007 54.3412 110.071 55.4118 110.157 56.1401H110.179C110.265 55.4445 110.35 54.256 110.457 53.7097L111.057 50.5947H113.64V58.2812H111.872V55.5836C111.872 54.8447 111.926 52.875 111.969 52.2323H111.958L110.811 58.2812H109.525L108.378 52.2323H108.367C108.399 52.7681 108.464 54.5343 108.464 55.5726V58.2812H106.695V50.5947H109.278Z" fill="white"/>
<path d="M134.199 56.3694H132.891V55.823C133.771 55.823 134.25 55.6608 134.353 54.7046H134.882V60.8513H134.199V56.3694Z" fill="#0079C1"/>
<path d="M143.077 57.5478C143.077 58.8281 143.069 60.9793 141.291 60.9793C140.385 60.9793 139.83 60.3991 139.83 59.511H140.522C140.522 60.066 140.761 60.3649 141.343 60.3649C142.223 60.3649 142.342 58.888 142.411 57.9747H142.394C142.154 58.504 141.702 58.7343 141.265 58.7343C140.163 58.7343 139.676 57.8467 139.676 56.8563C139.676 55.5413 140.377 54.7051 141.308 54.7051C142.958 54.7051 143.077 56.2928 143.077 57.5478ZM141.334 55.3195C140.565 55.3195 140.385 56.1053 140.385 56.7283C140.385 57.3684 140.547 58.1199 141.343 58.1199C142.112 58.1199 142.342 57.4793 142.342 56.8392C142.342 56.1819 142.154 55.3195 141.334 55.3195Z" fill="#0079C1"/>
<path d="M150.108 54.8247V55.3968C148.928 56.9845 148.245 58.8968 148.082 60.8519H147.313C147.552 58.8968 148.338 57.0188 149.552 55.4392H146.723V54.8247H150.108Z" fill="#0079C1"/>
<path d="M153.762 58.1285C153.762 56.8482 153.805 54.7051 155.574 54.7051C156.386 54.7051 156.992 55.3195 156.992 56.1733H156.317C156.291 55.5332 155.976 55.3195 155.463 55.3195C154.617 55.3195 154.463 57.0357 154.428 57.7101H154.437C154.676 57.1809 155.138 56.9505 155.574 56.9505C156.676 56.9505 157.163 57.8381 157.163 58.8286C157.163 60.1431 156.462 60.9798 155.531 60.9798C153.881 60.9798 153.762 59.3835 153.762 58.1285ZM154.514 58.8028C154.514 59.9722 154.899 60.3654 155.514 60.3654C156.317 60.3654 156.454 59.4944 156.454 58.8709C156.454 58.1965 156.249 57.5649 155.463 57.5649C154.659 57.5649 154.514 58.2393 154.514 58.8028Z" fill="#0079C1"/>
<path d="M164.544 58.4785H160.441V59.0591H164.544V58.4785Z" fill="#0079C1"/>
<path d="M167.892 56.7963V56.5146C167.892 55.4989 168.405 54.7051 169.507 54.7051C170.558 54.7051 171.097 55.3966 171.097 56.4208C171.097 57.3427 170.61 57.8805 169.986 58.4354C168.78 59.5196 168.652 59.6391 168.567 60.2369H171.148V60.8513H167.84C167.84 59.7585 168.046 59.2293 169.378 58.1285C169.883 57.7096 170.387 57.1723 170.387 56.4037C170.387 55.7807 170.173 55.3195 169.473 55.3195C168.669 55.3195 168.567 55.9682 168.567 56.7963H167.892Z" fill="#0079C1"/>
<path d="M174.898 57.8296C174.898 56.6259 175.009 54.7051 176.573 54.7051C178.146 54.7051 178.257 56.6083 178.257 57.8296C178.257 59.2207 178.181 60.9793 176.573 60.9793C174.992 60.9793 174.898 59.2207 174.898 57.8296ZM176.573 60.3648C177.446 60.3648 177.548 59.1012 177.548 57.8296C177.548 56.7449 177.446 55.3195 176.573 55.3195C175.693 55.3195 175.608 56.7449 175.608 57.8296C175.608 59.1012 175.693 60.3648 176.573 60.3648Z" fill="#0079C1"/>
<path d="M181.974 56.7963V56.5146C181.974 55.4989 182.487 54.7051 183.589 54.7051C184.64 54.7051 185.179 55.3966 185.179 56.4208C185.179 57.3427 184.692 57.8805 184.068 58.4354C182.863 59.5196 182.734 59.6391 182.649 60.2369H185.23V60.8513H181.922C181.922 59.7585 182.128 59.2293 183.46 58.1285C183.965 57.7096 184.469 57.1723 184.469 56.4037C184.469 55.7807 184.255 55.3195 183.555 55.3195C182.751 55.3195 182.649 55.9682 182.649 56.7963H181.974Z" fill="#0079C1"/>
<path d="M188.961 58.1285C188.961 56.8482 189.004 54.7051 190.773 54.7051C191.585 54.7051 192.192 55.3195 192.192 56.1733H191.516C191.491 55.5332 191.175 55.3195 190.662 55.3195C189.816 55.3195 189.662 57.0357 189.628 57.7101H189.637C189.875 57.1809 190.337 56.9505 190.773 56.9505C191.876 56.9505 192.363 57.8381 192.363 58.8286C192.363 60.1431 191.662 60.9798 190.731 60.9798C189.081 60.9798 188.961 59.3835 188.961 58.1285ZM189.713 58.8028C189.713 59.9722 190.098 60.3654 190.713 60.3654C191.516 60.3654 191.654 59.4944 191.654 58.8709C191.654 58.1965 191.448 57.5649 190.662 57.5649C189.859 57.5649 189.713 58.2393 189.713 58.8028Z" fill="#0079C1"/>
</g>
<defs>
<clipPath id="clip0_843_29894">
<rect width="206" height="68" fill="white"/>
</clipPath>
</defs>
</svg>
