<svg width="78" height="75" viewBox="0 0 78 75" fill="none" xmlns="http://www.w3.org/2000/svg">
<g filter="url(#filter0_dd_843_29694)">
<path d="M50.25 34V32C50.25 31.8674 50.1973 31.7403 50.1035 31.6465C50.0097 31.5527 49.8826 31.5 49.75 31.5H44.75C43.8217 31.5 42.9318 31.869 42.2754 32.5254C41.619 33.1818 41.25 34.0717 41.25 35V46.5518C41.2585 46.543 41.2668 46.534 41.2754 46.5254C41.9318 45.869 42.8217 45.5 43.75 45.5H45.75C46.0261 45.5 46.25 45.7239 46.25 46C46.25 46.2761 46.0261 46.5 45.75 46.5H43.75C43.087 46.5 42.4513 46.7636 41.9824 47.2324C41.5136 47.7013 41.25 48.337 41.25 49C41.25 49.2761 41.0261 49.5 40.75 49.5C40.4739 49.5 40.25 49.2761 40.25 49C40.25 48.337 39.9864 47.7013 39.5176 47.2324C39.1073 46.8222 38.5694 46.5695 37.9971 46.5127L37.75 46.5H31.75C31.3522 46.5 30.9708 46.3419 30.6895 46.0605C30.4081 45.7792 30.25 45.3978 30.25 45V32C30.25 31.6022 30.4081 31.2208 30.6895 30.9395C30.9708 30.6581 31.3522 30.5 31.75 30.5H36.75C37.9435 30.5 39.0877 30.9744 39.9316 31.8184C40.2641 32.1508 40.5387 32.53 40.75 32.9404C40.9613 32.53 41.2359 32.1508 41.5684 31.8184C42.4123 30.9744 43.5565 30.5 44.75 30.5H49.75C50.1478 30.5 50.5292 30.6581 50.8105 30.9395C51.0919 31.2208 51.25 31.6022 51.25 32V34C51.25 34.2761 51.0261 34.5 50.75 34.5C50.4739 34.5 50.25 34.2761 50.25 34ZM31.25 45C31.25 45.1326 31.3027 45.2597 31.3965 45.3535C31.4903 45.4473 31.6174 45.5 31.75 45.5H37.75C38.6783 45.5 39.5682 45.869 40.2246 46.5254C40.2332 46.534 40.2415 46.543 40.25 46.5518V35C40.25 34.0717 39.881 33.1818 39.2246 32.5254C38.5682 31.869 37.6783 31.5 36.75 31.5H31.75C31.6174 31.5 31.4903 31.5527 31.3965 31.6465C31.3027 31.7403 31.25 31.8674 31.25 32V45Z" fill="#101828"/>
<path d="M49.535 43.6737C49.2363 43.6737 48.988 43.4301 49.0326 43.1348C49.064 42.9275 49.1145 42.7358 49.1842 42.5598C49.3206 42.24 49.4863 41.9667 49.6811 41.7398C49.876 41.5129 50.1293 41.255 50.441 40.9662C50.86 40.5743 51.1668 40.2339 51.3617 39.9451C51.5663 39.646 51.6686 39.285 51.6686 38.8622C51.6686 38.2949 51.4591 37.8411 51.0402 37.5007C50.6213 37.15 50.0465 36.9747 49.3158 36.9747C48.3026 36.9747 47.4847 37.2685 46.8621 37.8562C46.6609 38.0461 46.3481 38.0868 46.1319 37.9142C45.92 37.7448 45.8807 37.434 46.0705 37.2401C46.88 36.4134 47.9861 36 49.3888 36C50.4118 36 51.2253 36.2424 51.8293 36.7271C52.4431 37.2119 52.75 37.8669 52.75 38.692C52.75 39.1149 52.6818 39.4913 52.5454 39.8214C52.4188 40.1411 52.258 40.4144 52.0632 40.6413C51.878 40.8683 51.6296 41.1313 51.3179 41.4304C50.8989 41.8326 50.5872 42.1936 50.3826 42.5134C50.2628 42.6946 50.178 42.9023 50.1284 43.1365C50.0665 43.4286 49.8336 43.6737 49.535 43.6737ZM49.535 47C49.3206 47 49.1404 46.9226 48.9943 46.7679C48.8481 46.6029 48.7751 46.4121 48.7751 46.1955C48.7751 45.9686 48.8481 45.7829 48.9943 45.6385C49.1404 45.4838 49.3206 45.4065 49.535 45.4065C49.759 45.4065 49.9442 45.4838 50.0903 45.6385C50.2364 45.7829 50.3095 45.9686 50.3095 46.1955C50.3095 46.4121 50.2316 46.6029 50.0757 46.7679C49.9295 46.9226 49.7493 47 49.535 47Z" fill="#101828"/>
</g>
<defs>
<filter id="filter0_dd_843_29694" x="-8" y="-9.5" width="94" height="94" filterUnits="userSpaceOnUse" color-interpolation-filters="sRGB">
<feFlood flood-opacity="0" result="BackgroundImageFix"/>
<feColorMatrix in="SourceAlpha" type="matrix" values="0 0 0 0 0 0 0 0 0 0 0 0 0 0 0 0 0 0 127 0" result="hardAlpha"/>
<feOffset dx="5" dy="5"/>
<feGaussianBlur stdDeviation="10"/>
<feComposite in2="hardAlpha" operator="out"/>
<feColorMatrix type="matrix" values="0 0 0 0 0.594356 0 0 0 0 0.627031 0 0 0 0 0.823077 0 0 0 0.2 0"/>
<feBlend mode="normal" in2="BackgroundImageFix" result="effect1_dropShadow_843_29694"/>
<feColorMatrix in="SourceAlpha" type="matrix" values="0 0 0 0 0 0 0 0 0 0 0 0 0 0 0 0 0 0 127 0" result="hardAlpha"/>
<feMorphology radius="5" operator="dilate" in="SourceAlpha" result="effect2_dropShadow_843_29694"/>
<feOffset dx="-5" dy="-5"/>
<feGaussianBlur stdDeviation="10"/>
<feComposite in2="hardAlpha" operator="out"/>
<feColorMatrix type="matrix" values="0 0 0 0 0.964637 0 0 0 0 0.96859 0 0 0 0 0.992308 0 0 0 1 0"/>
<feBlend mode="normal" in2="effect1_dropShadow_843_29694" result="effect2_dropShadow_843_29694"/>
<feBlend mode="normal" in="SourceGraphic" in2="effect2_dropShadow_843_29694" result="shape"/>
</filter>
</defs>
</svg>
